<svg xmlns="http://www.w3.org/2000/svg" xmlns:xlink="http://www.w3.org/1999/xlink" width="1920" zoomAndPan="magnify" viewBox="0 0 1440 809.999993" height="1080" preserveAspectRatio="xMidYMid meet" version="1.0"><defs><linearGradient x1="0" gradientTransform="matrix(0.75, 0, 0, 0.75, 0.00000622222, 0.00002)" y1="0" x2="1919.99992" gradientUnits="userSpaceOnUse" y2="0" id="9c1f569e1f"><stop stop-opacity="1" stop-color="rgb(65.098572%, 65.098572%, 65.098572%)" offset="0"/><stop stop-opacity="1" stop-color="rgb(65.234375%, 65.234375%, 65.234375%)" offset="0.0078125"/><stop stop-opacity="1" stop-color="rgb(65.507507%, 65.507507%, 65.507507%)" offset="0.015625"/><stop stop-opacity="1" stop-color="rgb(65.78064%, 65.78064%, 65.78064%)" offset="0.0234375"/><stop stop-opacity="1" stop-color="rgb(66.052246%, 66.052246%, 66.052246%)" offset="0.03125"/><stop stop-opacity="1" stop-color="rgb(66.325378%, 66.325378%, 66.325378%)" offset="0.0390625"/><stop stop-opacity="1" stop-color="rgb(66.598511%, 66.598511%, 66.598511%)" offset="0.046875"/><stop stop-opacity="1" stop-color="rgb(66.871643%, 66.871643%, 66.871643%)" offset="0.0546875"/><stop stop-opacity="1" stop-color="rgb(67.14325%, 67.14325%, 67.14325%)" offset="0.0625"/><stop stop-opacity="1" stop-color="rgb(67.416382%, 67.416382%, 67.416382%)" offset="0.0703125"/><stop stop-opacity="1" stop-color="rgb(67.689514%, 67.689514%, 67.689514%)" offset="0.078125"/><stop stop-opacity="1" stop-color="rgb(67.961121%, 67.961121%, 67.961121%)" offset="0.0859375"/><stop stop-opacity="1" stop-color="rgb(68.234253%, 68.234253%, 68.234253%)" offset="0.09375"/><stop stop-opacity="1" stop-color="rgb(68.507385%, 68.507385%, 68.507385%)" offset="0.101562"/><stop stop-opacity="1" stop-color="rgb(68.778992%, 68.778992%, 68.778992%)" offset="0.109375"/><stop stop-opacity="1" stop-color="rgb(69.052124%, 69.052124%, 69.052124%)" offset="0.117188"/><stop stop-opacity="1" stop-color="rgb(69.325256%, 69.325256%, 69.325256%)" offset="0.125"/><stop stop-opacity="1" stop-color="rgb(69.596863%, 69.596863%, 69.596863%)" offset="0.132812"/><stop stop-opacity="1" stop-color="rgb(69.869995%, 69.869995%, 69.869995%)" offset="0.140625"/><stop stop-opacity="1" stop-color="rgb(70.143127%, 70.143127%, 70.143127%)" offset="0.148438"/><stop stop-opacity="1" stop-color="rgb(70.41626%, 70.41626%, 70.41626%)" offset="0.15625"/><stop stop-opacity="1" stop-color="rgb(70.687866%, 70.687866%, 70.687866%)" offset="0.164062"/><stop stop-opacity="1" stop-color="rgb(70.960999%, 70.960999%, 70.960999%)" offset="0.171875"/><stop stop-opacity="1" stop-color="rgb(71.234131%, 71.234131%, 71.234131%)" offset="0.179688"/><stop stop-opacity="1" stop-color="rgb(71.505737%, 71.505737%, 71.505737%)" offset="0.1875"/><stop stop-opacity="1" stop-color="rgb(71.77887%, 71.77887%, 71.77887%)" offset="0.195312"/><stop stop-opacity="1" stop-color="rgb(72.052002%, 72.052002%, 72.052002%)" offset="0.203125"/><stop stop-opacity="1" stop-color="rgb(72.323608%, 72.323608%, 72.323608%)" offset="0.210938"/><stop stop-opacity="1" stop-color="rgb(72.596741%, 72.596741%, 72.596741%)" offset="0.21875"/><stop stop-opacity="1" stop-color="rgb(72.869873%, 72.869873%, 72.869873%)" offset="0.226562"/><stop stop-opacity="1" stop-color="rgb(73.141479%, 73.141479%, 73.141479%)" offset="0.234375"/><stop stop-opacity="1" stop-color="rgb(73.414612%, 73.414612%, 73.414612%)" offset="0.242188"/><stop stop-opacity="1" stop-color="rgb(73.687744%, 73.687744%, 73.687744%)" offset="0.25"/><stop stop-opacity="1" stop-color="rgb(73.959351%, 73.959351%, 73.959351%)" offset="0.257812"/><stop stop-opacity="1" stop-color="rgb(74.232483%, 74.232483%, 74.232483%)" offset="0.265625"/><stop stop-opacity="1" stop-color="rgb(74.505615%, 74.505615%, 74.505615%)" offset="0.273438"/><stop stop-opacity="1" stop-color="rgb(74.778748%, 74.778748%, 74.778748%)" offset="0.28125"/><stop stop-opacity="1" stop-color="rgb(75.050354%, 75.050354%, 75.050354%)" offset="0.289062"/><stop stop-opacity="1" stop-color="rgb(75.323486%, 75.323486%, 75.323486%)" offset="0.296875"/><stop stop-opacity="1" stop-color="rgb(75.596619%, 75.596619%, 75.596619%)" offset="0.304688"/><stop stop-opacity="1" stop-color="rgb(75.868225%, 75.868225%, 75.868225%)" offset="0.3125"/><stop stop-opacity="1" stop-color="rgb(76.141357%, 76.141357%, 76.141357%)" offset="0.320312"/><stop stop-opacity="1" stop-color="rgb(76.41449%, 76.41449%, 76.41449%)" offset="0.328125"/><stop stop-opacity="1" stop-color="rgb(76.686096%, 76.686096%, 76.686096%)" offset="0.335938"/><stop stop-opacity="1" stop-color="rgb(76.959229%, 76.959229%, 76.959229%)" offset="0.34375"/><stop stop-opacity="1" stop-color="rgb(77.232361%, 77.232361%, 77.232361%)" offset="0.351562"/><stop stop-opacity="1" stop-color="rgb(77.503967%, 77.503967%, 77.503967%)" offset="0.359375"/><stop stop-opacity="1" stop-color="rgb(77.7771%, 77.7771%, 77.7771%)" offset="0.367188"/><stop stop-opacity="1" stop-color="rgb(78.050232%, 78.050232%, 78.050232%)" offset="0.375"/><stop stop-opacity="1" stop-color="rgb(78.321838%, 78.321838%, 78.321838%)" offset="0.382812"/><stop stop-opacity="1" stop-color="rgb(78.594971%, 78.594971%, 78.594971%)" offset="0.390625"/><stop stop-opacity="1" stop-color="rgb(78.868103%, 78.868103%, 78.868103%)" offset="0.398438"/><stop stop-opacity="1" stop-color="rgb(79.141235%, 79.141235%, 79.141235%)" offset="0.40625"/><stop stop-opacity="1" stop-color="rgb(79.412842%, 79.412842%, 79.412842%)" offset="0.414062"/><stop stop-opacity="1" stop-color="rgb(79.685974%, 79.685974%, 79.685974%)" offset="0.421875"/><stop stop-opacity="1" stop-color="rgb(79.959106%, 79.959106%, 79.959106%)" offset="0.429688"/><stop stop-opacity="1" stop-color="rgb(80.230713%, 80.230713%, 80.230713%)" offset="0.4375"/><stop stop-opacity="1" stop-color="rgb(80.503845%, 80.503845%, 80.503845%)" offset="0.445312"/><stop stop-opacity="1" stop-color="rgb(80.776978%, 80.776978%, 80.776978%)" offset="0.453125"/><stop stop-opacity="1" stop-color="rgb(81.048584%, 81.048584%, 81.048584%)" offset="0.460938"/><stop stop-opacity="1" stop-color="rgb(81.321716%, 81.321716%, 81.321716%)" offset="0.46875"/><stop stop-opacity="1" stop-color="rgb(81.594849%, 81.594849%, 81.594849%)" offset="0.476562"/><stop stop-opacity="1" stop-color="rgb(81.866455%, 81.866455%, 81.866455%)" offset="0.484375"/><stop stop-opacity="1" stop-color="rgb(82.139587%, 82.139587%, 82.139587%)" offset="0.492188"/><stop stop-opacity="1" stop-color="rgb(82.41272%, 82.41272%, 82.41272%)" offset="0.5"/><stop stop-opacity="1" stop-color="rgb(82.684326%, 82.684326%, 82.684326%)" offset="0.507812"/><stop stop-opacity="1" stop-color="rgb(82.957458%, 82.957458%, 82.957458%)" offset="0.515625"/><stop stop-opacity="1" stop-color="rgb(83.230591%, 83.230591%, 83.230591%)" offset="0.523438"/><stop stop-opacity="1" stop-color="rgb(83.503723%, 83.503723%, 83.503723%)" offset="0.53125"/><stop stop-opacity="1" stop-color="rgb(83.77533%, 83.77533%, 83.77533%)" offset="0.539062"/><stop stop-opacity="1" stop-color="rgb(84.048462%, 84.048462%, 84.048462%)" offset="0.546875"/><stop stop-opacity="1" stop-color="rgb(84.321594%, 84.321594%, 84.321594%)" offset="0.554688"/><stop stop-opacity="1" stop-color="rgb(84.593201%, 84.593201%, 84.593201%)" offset="0.5625"/><stop stop-opacity="1" stop-color="rgb(84.866333%, 84.866333%, 84.866333%)" offset="0.570312"/><stop stop-opacity="1" stop-color="rgb(85.139465%, 85.139465%, 85.139465%)" offset="0.578125"/><stop stop-opacity="1" stop-color="rgb(85.411072%, 85.411072%, 85.411072%)" offset="0.585938"/><stop stop-opacity="1" stop-color="rgb(85.684204%, 85.684204%, 85.684204%)" offset="0.59375"/><stop stop-opacity="1" stop-color="rgb(85.957336%, 85.957336%, 85.957336%)" offset="0.601562"/><stop stop-opacity="1" stop-color="rgb(86.228943%, 86.228943%, 86.228943%)" offset="0.609375"/><stop stop-opacity="1" stop-color="rgb(86.502075%, 86.502075%, 86.502075%)" offset="0.617188"/><stop stop-opacity="1" stop-color="rgb(86.775208%, 86.775208%, 86.775208%)" offset="0.625"/><stop stop-opacity="1" stop-color="rgb(87.046814%, 87.046814%, 87.046814%)" offset="0.632812"/><stop stop-opacity="1" stop-color="rgb(87.319946%, 87.319946%, 87.319946%)" offset="0.640625"/><stop stop-opacity="1" stop-color="rgb(87.593079%, 87.593079%, 87.593079%)" offset="0.648438"/><stop stop-opacity="1" stop-color="rgb(87.866211%, 87.866211%, 87.866211%)" offset="0.65625"/><stop stop-opacity="1" stop-color="rgb(88.137817%, 88.137817%, 88.137817%)" offset="0.664062"/><stop stop-opacity="1" stop-color="rgb(88.41095%, 88.41095%, 88.41095%)" offset="0.671875"/><stop stop-opacity="1" stop-color="rgb(88.684082%, 88.684082%, 88.684082%)" offset="0.679688"/><stop stop-opacity="1" stop-color="rgb(88.955688%, 88.955688%, 88.955688%)" offset="0.6875"/><stop stop-opacity="1" stop-color="rgb(89.228821%, 89.228821%, 89.228821%)" offset="0.695312"/><stop stop-opacity="1" stop-color="rgb(89.501953%, 89.501953%, 89.501953%)" offset="0.703125"/><stop stop-opacity="1" stop-color="rgb(89.77356%, 89.77356%, 89.77356%)" offset="0.710938"/><stop stop-opacity="1" stop-color="rgb(90.046692%, 90.046692%, 90.046692%)" offset="0.71875"/><stop stop-opacity="1" stop-color="rgb(90.319824%, 90.319824%, 90.319824%)" offset="0.726562"/><stop stop-opacity="1" stop-color="rgb(90.591431%, 90.591431%, 90.591431%)" offset="0.734375"/><stop stop-opacity="1" stop-color="rgb(90.864563%, 90.864563%, 90.864563%)" offset="0.742188"/><stop stop-opacity="1" stop-color="rgb(91.137695%, 91.137695%, 91.137695%)" offset="0.75"/><stop stop-opacity="1" stop-color="rgb(91.409302%, 91.409302%, 91.409302%)" offset="0.757812"/><stop stop-opacity="1" stop-color="rgb(91.682434%, 91.682434%, 91.682434%)" offset="0.765625"/><stop stop-opacity="1" stop-color="rgb(91.955566%, 91.955566%, 91.955566%)" offset="0.773438"/><stop stop-opacity="1" stop-color="rgb(92.228699%, 92.228699%, 92.228699%)" offset="0.78125"/><stop stop-opacity="1" stop-color="rgb(92.500305%, 92.500305%, 92.500305%)" offset="0.789062"/><stop stop-opacity="1" stop-color="rgb(92.773438%, 92.773438%, 92.773438%)" offset="0.796875"/><stop stop-opacity="1" stop-color="rgb(93.04657%, 93.04657%, 93.04657%)" offset="0.804688"/><stop stop-opacity="1" stop-color="rgb(93.318176%, 93.318176%, 93.318176%)" offset="0.8125"/><stop stop-opacity="1" stop-color="rgb(93.591309%, 93.591309%, 93.591309%)" offset="0.820312"/><stop stop-opacity="1" stop-color="rgb(93.864441%, 93.864441%, 93.864441%)" offset="0.828125"/><stop stop-opacity="1" stop-color="rgb(94.136047%, 94.136047%, 94.136047%)" offset="0.835938"/><stop stop-opacity="1" stop-color="rgb(94.40918%, 94.40918%, 94.40918%)" offset="0.84375"/><stop stop-opacity="1" stop-color="rgb(94.682312%, 94.682312%, 94.682312%)" offset="0.851562"/><stop stop-opacity="1" stop-color="rgb(94.953918%, 94.953918%, 94.953918%)" offset="0.859375"/><stop stop-opacity="1" stop-color="rgb(95.227051%, 95.227051%, 95.227051%)" offset="0.867188"/><stop stop-opacity="1" stop-color="rgb(95.500183%, 95.500183%, 95.500183%)" offset="0.875"/><stop stop-opacity="1" stop-color="rgb(95.77179%, 95.77179%, 95.77179%)" offset="0.882812"/><stop stop-opacity="1" stop-color="rgb(96.044922%, 96.044922%, 96.044922%)" offset="0.890625"/><stop stop-opacity="1" stop-color="rgb(96.318054%, 96.318054%, 96.318054%)" offset="0.898438"/><stop stop-opacity="1" stop-color="rgb(96.591187%, 96.591187%, 96.591187%)" offset="0.90625"/><stop stop-opacity="1" stop-color="rgb(96.862793%, 96.862793%, 96.862793%)" offset="0.914062"/><stop stop-opacity="1" stop-color="rgb(97.135925%, 97.135925%, 97.135925%)" offset="0.921875"/><stop stop-opacity="1" stop-color="rgb(97.409058%, 97.409058%, 97.409058%)" offset="0.929688"/><stop stop-opacity="1" stop-color="rgb(97.680664%, 97.680664%, 97.680664%)" offset="0.9375"/><stop stop-opacity="1" stop-color="rgb(97.953796%, 97.953796%, 97.953796%)" offset="0.945312"/><stop stop-opacity="1" stop-color="rgb(98.226929%, 98.226929%, 98.226929%)" offset="0.953125"/><stop stop-opacity="1" stop-color="rgb(98.498535%, 98.498535%, 98.498535%)" offset="0.960938"/><stop stop-opacity="1" stop-color="rgb(98.771667%, 98.771667%, 98.771667%)" offset="0.96875"/><stop stop-opacity="1" stop-color="rgb(99.0448%, 99.0448%, 99.0448%)" offset="0.976562"/><stop stop-opacity="1" stop-color="rgb(99.316406%, 99.316406%, 99.316406%)" offset="0.984375"/><stop stop-opacity="1" stop-color="rgb(99.589539%, 99.589539%, 99.589539%)" offset="0.992188"/><stop stop-opacity="1" stop-color="rgb(99.862671%, 99.862671%, 99.862671%)" offset="1"/></linearGradient><clipPath id="f05bb4304e"><path d="M 494 264.511719 L 946 264.511719 L 946 545.761719 L 494 545.761719 Z M 494 264.511719 " clip-rule="nonzero"/></clipPath></defs><rect x="-144" width="1728" fill="#ffffff" y="-80.999999" height="971.999992" fill-opacity="1"/><rect x="-144" width="1728" fill="#ffffff" y="-80.999999" height="971.999992" fill-opacity="1"/><rect x="-144" fill="url(#9c1f569e1f)" width="1728" y="-80.999999" height="971.999992"/><g clip-path="url(#f05bb4304e)"><path fill="#000000" d="M 537.074219 546.175781 L 795.960938 546.175781 C 797.359375 546.175781 798.757812 546.105469 800.152344 545.964844 C 801.546875 545.828125 802.929688 545.621094 804.304688 545.34375 C 805.679688 545.070312 807.035156 544.730469 808.375 544.320312 C 809.714844 543.914062 811.035156 543.4375 812.328125 542.902344 C 813.621094 542.363281 814.886719 541.765625 816.121094 541.101562 C 817.355469 540.441406 818.554688 539.71875 819.722656 538.941406 C 820.886719 538.160156 822.007812 537.324219 823.09375 536.433594 C 824.175781 535.542969 825.210938 534.605469 826.203125 533.613281 C 827.191406 532.621094 828.132812 531.582031 829.023438 530.496094 C 829.910156 529.414062 830.746094 528.289062 831.523438 527.121094 C 832.300781 525.953125 833.023438 524.753906 833.683594 523.515625 C 834.34375 522.28125 834.941406 521.011719 835.480469 519.71875 C 836.015625 518.421875 836.488281 517.101562 836.894531 515.761719 C 837.304688 514.417969 837.644531 513.058594 837.917969 511.683594 C 838.195312 510.308594 838.402344 508.921875 838.539062 507.527344 C 838.679688 506.128906 838.75 504.730469 838.75 503.328125 L 838.75 474.027344 L 904.289062 509.554688 C 904.816406 509.839844 905.355469 510.109375 905.902344 510.363281 C 906.449219 510.613281 907.003906 510.847656 907.5625 511.066406 C 908.125 511.28125 908.695312 511.480469 909.269531 511.660156 C 909.84375 511.839844 910.421875 512 911.007812 512.140625 C 911.59375 512.28125 912.179688 512.40625 912.773438 512.507812 C 913.367188 512.613281 913.960938 512.699219 914.5625 512.761719 C 915.160156 512.828125 915.757812 512.875 916.359375 512.902344 C 916.960938 512.925781 917.5625 512.933594 918.164062 512.921875 C 918.765625 512.910156 919.367188 512.878906 919.964844 512.824219 C 920.566406 512.773438 921.164062 512.703125 921.757812 512.613281 C 922.355469 512.523438 922.945312 512.414062 923.53125 512.285156 C 924.121094 512.160156 924.703125 512.011719 925.28125 511.84375 C 925.863281 511.679688 926.433594 511.496094 927 511.292969 C 927.566406 511.089844 928.125 510.867188 928.679688 510.628906 C 929.230469 510.390625 929.777344 510.132812 930.3125 509.859375 C 930.847656 509.582031 931.375 509.292969 931.890625 508.984375 C 932.40625 508.675781 932.914062 508.351562 933.410156 508.007812 C 933.90625 507.667969 934.390625 507.3125 934.863281 506.9375 C 935.335938 506.566406 935.796875 506.179688 936.246094 505.777344 C 936.691406 505.375 937.128906 504.957031 937.546875 504.527344 C 937.96875 504.097656 938.375 503.652344 938.769531 503.195312 C 939.160156 502.738281 939.539062 502.269531 939.902344 501.789062 C 940.261719 501.308594 940.609375 500.816406 940.941406 500.3125 C 941.269531 499.808594 941.585938 499.292969 941.882812 498.769531 C 942.179688 498.246094 942.457031 497.710938 942.722656 497.171875 C 942.984375 496.628906 943.230469 496.078125 943.457031 495.519531 C 943.683594 494.960938 943.894531 494.398438 944.085938 493.824219 C 944.277344 493.253906 944.449219 492.675781 944.601562 492.09375 C 944.753906 491.511719 944.890625 490.925781 945.007812 490.332031 C 945.121094 489.742188 945.21875 489.148438 945.296875 488.550781 C 945.375 487.953125 945.429688 487.351562 945.46875 486.75 C 945.507812 486.148438 945.527344 485.546875 945.527344 484.945312 L 945.527344 326.109375 C 945.527344 325.503906 945.507812 324.902344 945.46875 324.300781 C 945.429688 323.699219 945.375 323.101562 945.296875 322.503906 C 945.21875 321.90625 945.121094 321.3125 945.007812 320.71875 C 944.890625 320.128906 944.753906 319.542969 944.601562 318.957031 C 944.449219 318.375 944.277344 317.800781 944.085938 317.226562 C 943.894531 316.65625 943.683594 316.089844 943.457031 315.535156 C 943.230469 314.976562 942.984375 314.425781 942.722656 313.882812 C 942.457031 313.339844 942.179688 312.808594 941.882812 312.285156 C 941.585938 311.761719 941.269531 311.246094 940.941406 310.742188 C 940.609375 310.238281 940.261719 309.746094 939.902344 309.265625 C 939.539062 308.785156 939.160156 308.316406 938.769531 307.859375 C 938.375 307.402344 937.96875 306.957031 937.546875 306.527344 C 937.128906 306.097656 936.691406 305.679688 936.246094 305.277344 C 935.796875 304.875 935.335938 304.488281 934.863281 304.113281 C 934.390625 303.742188 933.90625 303.386719 933.410156 303.042969 C 932.914062 302.703125 932.40625 302.378906 931.890625 302.070312 C 931.375 301.761719 930.847656 301.46875 930.3125 301.195312 C 929.777344 300.921875 929.230469 300.664062 928.679688 300.425781 C 928.125 300.1875 927.566406 299.964844 927 299.761719 C 926.433594 299.558594 925.863281 299.375 925.28125 299.207031 C 924.703125 299.042969 924.121094 298.894531 923.53125 298.765625 C 922.945312 298.636719 922.355469 298.53125 921.757812 298.4375 C 921.164062 298.347656 920.566406 298.277344 919.964844 298.226562 C 919.367188 298.175781 918.765625 298.144531 918.164062 298.132812 C 917.5625 298.121094 916.960938 298.125 916.359375 298.152344 C 915.757812 298.179688 915.160156 298.226562 914.5625 298.289062 C 913.960938 298.355469 913.367188 298.441406 912.773438 298.542969 C 912.179688 298.648438 911.59375 298.769531 911.007812 298.914062 C 910.421875 299.054688 909.84375 299.214844 909.269531 299.394531 C 908.695312 299.574219 908.125 299.773438 907.566406 299.988281 C 907.003906 300.203125 906.449219 300.4375 905.902344 300.691406 C 905.355469 300.941406 904.816406 301.210938 904.289062 301.5 L 838.75 337.027344 L 838.75 307.726562 C 838.75 306.324219 838.679688 304.925781 838.539062 303.527344 C 838.402344 302.132812 838.195312 300.746094 837.917969 299.371094 C 837.644531 297.996094 837.304688 296.636719 836.894531 295.292969 C 836.488281 293.953125 836.015625 292.632812 835.480469 291.335938 C 834.941406 290.039062 834.34375 288.773438 833.683594 287.539062 C 833.023438 286.300781 832.300781 285.097656 831.523438 283.933594 C 830.746094 282.765625 829.910156 281.640625 829.023438 280.554688 C 828.132812 279.472656 827.191406 278.433594 826.203125 277.441406 C 825.210938 276.449219 824.175781 275.507812 823.09375 274.617188 C 822.007812 273.726562 820.886719 272.894531 819.722656 272.113281 C 818.554688 271.332031 817.355469 270.613281 816.121094 269.953125 C 814.886719 269.289062 813.621094 268.691406 812.328125 268.152344 C 811.03125 267.613281 809.714844 267.140625 808.375 266.734375 C 807.035156 266.324219 805.679688 265.984375 804.304688 265.707031 C 802.929688 265.433594 801.546875 265.226562 800.152344 265.085938 C 798.757812 264.949219 797.359375 264.878906 795.960938 264.875 L 537.074219 264.875 C 535.675781 264.878906 534.277344 264.949219 532.882812 265.085938 C 531.488281 265.226562 530.105469 265.433594 528.730469 265.707031 C 527.359375 265.984375 526 266.324219 524.660156 266.734375 C 523.320312 267.140625 522.003906 267.613281 520.707031 268.152344 C 519.414062 268.691406 518.148438 269.289062 516.914062 269.953125 C 515.679688 270.613281 514.480469 271.332031 513.316406 272.113281 C 512.148438 272.894531 511.027344 273.726562 509.945312 274.617188 C 508.859375 275.507812 507.824219 276.449219 506.832031 277.441406 C 505.84375 278.433594 504.902344 279.472656 504.015625 280.554688 C 503.125 281.640625 502.292969 282.765625 501.511719 283.933594 C 500.734375 285.097656 500.015625 286.300781 499.351562 287.539062 C 498.691406 288.773438 498.09375 290.039062 497.554688 291.335938 C 497.019531 292.632812 496.546875 293.953125 496.140625 295.292969 C 495.730469 296.636719 495.390625 297.996094 495.117188 299.371094 C 494.839844 300.746094 494.636719 302.132812 494.496094 303.527344 C 494.359375 304.925781 494.289062 306.324219 494.285156 307.726562 L 494.285156 503.328125 C 494.289062 504.730469 494.359375 506.128906 494.496094 507.527344 C 494.636719 508.921875 494.839844 510.308594 495.117188 511.683594 C 495.390625 513.058594 495.730469 514.417969 496.140625 515.761719 C 496.546875 517.101562 497.019531 518.421875 497.554688 519.71875 C 498.09375 521.011719 498.691406 522.28125 499.351562 523.515625 C 500.015625 524.753906 500.734375 525.953125 501.511719 527.121094 C 502.292969 528.289062 503.125 529.414062 504.015625 530.496094 C 504.902344 531.582031 505.84375 532.621094 506.832031 533.613281 C 507.824219 534.605469 508.859375 535.542969 509.945312 536.433594 C 511.027344 537.324219 512.148438 538.160156 513.316406 538.941406 C 514.480469 539.71875 515.679688 540.441406 516.914062 541.101562 C 518.148438 541.765625 519.414062 542.363281 520.707031 542.902344 C 522.003906 543.4375 523.320312 543.914062 524.660156 544.320312 C 526 544.730469 527.359375 545.070312 528.730469 545.34375 C 530.105469 545.621094 531.488281 545.828125 532.882812 545.964844 C 534.277344 546.105469 535.675781 546.175781 537.074219 546.175781 Z M 915.394531 322.054688 C 915.570312 321.960938 915.75 321.878906 915.9375 321.808594 C 916.121094 321.738281 916.308594 321.675781 916.503906 321.628906 C 916.695312 321.582031 916.890625 321.550781 917.085938 321.527344 C 917.285156 321.507812 917.484375 321.496094 917.679688 321.5 C 917.878906 321.503906 918.078125 321.523438 918.273438 321.550781 C 918.46875 321.582031 918.664062 321.625 918.855469 321.679688 C 919.042969 321.734375 919.230469 321.800781 919.414062 321.878906 C 919.59375 321.957031 919.769531 322.046875 919.941406 322.148438 C 920.113281 322.25 920.277344 322.363281 920.429688 322.488281 C 920.585938 322.609375 920.734375 322.742188 920.875 322.882812 C 921.011719 323.027344 921.140625 323.175781 921.261719 323.335938 C 921.378906 323.492188 921.488281 323.660156 921.585938 323.832031 C 921.683594 324.003906 921.773438 324.183594 921.847656 324.367188 C 921.921875 324.550781 921.984375 324.738281 922.035156 324.929688 C 922.085938 325.121094 922.125 325.316406 922.148438 325.515625 C 922.175781 325.710938 922.1875 325.910156 922.1875 326.109375 L 922.1875 484.945312 C 922.1875 485.144531 922.175781 485.34375 922.148438 485.539062 C 922.125 485.734375 922.085938 485.929688 922.035156 486.121094 C 921.984375 486.316406 921.921875 486.503906 921.847656 486.6875 C 921.773438 486.871094 921.683594 487.050781 921.585938 487.222656 C 921.488281 487.394531 921.378906 487.558594 921.261719 487.71875 C 921.140625 487.878906 921.011719 488.027344 920.875 488.171875 C 920.734375 488.3125 920.585938 488.445312 920.429688 488.566406 C 920.277344 488.691406 920.113281 488.800781 919.941406 488.902344 C 919.769531 489.003906 919.59375 489.097656 919.414062 489.175781 C 919.230469 489.253906 919.042969 489.320312 918.855469 489.375 C 918.664062 489.429688 918.46875 489.472656 918.273438 489.5 C 918.078125 489.53125 917.878906 489.546875 917.679688 489.550781 C 917.484375 489.554688 917.285156 489.546875 917.085938 489.527344 C 916.890625 489.503906 916.695312 489.46875 916.503906 489.421875 C 916.308594 489.375 916.121094 489.316406 915.9375 489.246094 C 915.75 489.175781 915.570312 489.089844 915.394531 488.996094 L 838.75 447.449219 L 838.75 363.605469 Z M 517.625 307.726562 C 517.625 307.089844 517.660156 306.453125 517.722656 305.816406 C 517.785156 305.183594 517.878906 304.554688 518.003906 303.929688 C 518.128906 303.304688 518.28125 302.683594 518.46875 302.074219 C 518.652344 301.464844 518.867188 300.863281 519.113281 300.277344 C 519.355469 299.6875 519.628906 299.113281 519.929688 298.550781 C 520.230469 297.988281 520.554688 297.441406 520.910156 296.910156 C 521.265625 296.378906 521.644531 295.867188 522.046875 295.375 C 522.449219 294.882812 522.878906 294.410156 523.328125 293.960938 C 523.777344 293.507812 524.25 293.082031 524.742188 292.675781 C 525.234375 292.273438 525.746094 291.894531 526.273438 291.539062 C 526.804688 291.183594 527.351562 290.855469 527.910156 290.554688 C 528.472656 290.253906 529.046875 289.980469 529.636719 289.738281 C 530.222656 289.492188 530.824219 289.277344 531.433594 289.09375 C 532.042969 288.90625 532.660156 288.75 533.28125 288.628906 C 533.90625 288.503906 534.535156 288.40625 535.171875 288.34375 C 535.804688 288.28125 536.4375 288.25 537.074219 288.25 L 795.960938 288.25 C 796.597656 288.25 797.230469 288.28125 797.867188 288.34375 C 798.5 288.40625 799.128906 288.503906 799.753906 288.628906 C 800.378906 288.75 800.996094 288.90625 801.605469 289.09375 C 802.214844 289.277344 802.8125 289.492188 803.398438 289.738281 C 803.988281 289.980469 804.5625 290.253906 805.125 290.554688 C 805.6875 290.855469 806.230469 291.183594 806.761719 291.539062 C 807.289062 291.894531 807.800781 292.273438 808.292969 292.675781 C 808.785156 293.082031 809.257812 293.507812 809.707031 293.960938 C 810.15625 294.410156 810.585938 294.882812 810.988281 295.375 C 811.394531 295.867188 811.773438 296.378906 812.125 296.910156 C 812.480469 297.441406 812.808594 297.988281 813.105469 298.550781 C 813.40625 299.113281 813.679688 299.6875 813.925781 300.277344 C 814.167969 300.863281 814.382812 301.464844 814.566406 302.074219 C 814.753906 302.683594 814.910156 303.304688 815.03125 303.929688 C 815.15625 304.554688 815.25 305.183594 815.316406 305.816406 C 815.378906 306.453125 815.410156 307.089844 815.410156 307.726562 L 815.410156 503.328125 C 815.410156 503.964844 815.378906 504.601562 815.316406 505.234375 C 815.25 505.871094 815.15625 506.5 815.03125 507.125 C 814.910156 507.75 814.753906 508.367188 814.566406 508.980469 C 814.382812 509.589844 814.167969 510.1875 813.925781 510.777344 C 813.679688 511.367188 813.40625 511.941406 813.109375 512.503906 C 812.808594 513.066406 812.480469 513.613281 812.125 514.144531 C 811.773438 514.671875 811.394531 515.183594 810.988281 515.679688 C 810.585938 516.171875 810.15625 516.644531 809.707031 517.09375 C 809.257812 517.542969 808.785156 517.972656 808.292969 518.378906 C 807.800781 518.78125 807.289062 519.160156 806.761719 519.515625 C 806.230469 519.871094 805.6875 520.199219 805.125 520.5 C 804.5625 520.800781 803.988281 521.070312 803.398438 521.316406 C 802.8125 521.5625 802.214844 521.777344 801.605469 521.960938 C 800.996094 522.148438 800.378906 522.300781 799.753906 522.425781 C 799.128906 522.550781 798.5 522.644531 797.867188 522.707031 C 797.230469 522.773438 796.597656 522.804688 795.960938 522.804688 L 537.074219 522.804688 C 536.4375 522.804688 535.804688 522.773438 535.171875 522.707031 C 534.535156 522.644531 533.90625 522.550781 533.28125 522.425781 C 532.660156 522.300781 532.042969 522.148438 531.433594 521.960938 C 530.824219 521.777344 530.222656 521.5625 529.636719 521.316406 C 529.046875 521.070312 528.472656 520.800781 527.910156 520.5 C 527.351562 520.199219 526.804688 519.871094 526.273438 519.515625 C 525.746094 519.160156 525.234375 518.78125 524.742188 518.378906 C 524.25 517.972656 523.777344 517.542969 523.328125 517.09375 C 522.878906 516.644531 522.449219 516.171875 522.046875 515.679688 C 521.644531 515.183594 521.265625 514.671875 520.910156 514.144531 C 520.554688 513.613281 520.230469 513.066406 519.929688 512.503906 C 519.628906 511.941406 519.355469 511.367188 519.113281 510.777344 C 518.867188 510.1875 518.652344 509.589844 518.46875 508.980469 C 518.28125 508.367188 518.128906 507.75 518.003906 507.125 C 517.878906 506.5 517.785156 505.871094 517.722656 505.234375 C 517.660156 504.601562 517.625 503.964844 517.625 503.328125 Z M 517.625 307.726562 " fill-opacity="1" fill-rule="nonzero"/></g></svg>